# 1% Digital Solutions - extruded logo mark
o OnePercentLogo
v -1.37467 -2.00000 0.45000
v -0.72467 -2.00000 0.45000
v -0.72467 2.00000 0.45000
v -1.37467 2.00000 0.45000
v -2.12467 1.30000 0.45000
v -1.37467 0.75000 0.45000
v -1.37467 -2.00000 -0.45000
v -0.72467 -2.00000 -0.45000
v -0.72467 2.00000 -0.45000
v -1.37467 2.00000 -0.45000
v -2.12467 1.30000 -0.45000
v -1.37467 0.75000 -0.45000
v 0.12467 -2.26598 0.45000
v 2.12467 2.03402 0.45000
v 1.62598 2.26598 0.45000
v -0.37402 -2.03402 0.45000
v 0.12467 -2.26598 -0.45000
v 2.12467 2.03402 -0.45000
v 1.62598 2.26598 -0.45000
v -0.37402 -2.03402 -0.45000
v 0.77533 1.55000 0.45000
v 0.75305 1.70495 0.45000
v 0.68802 1.84735 0.45000
v 0.58550 1.96566 0.45000
v 0.45380 2.05030 0.45000
v 0.30360 2.09440 0.45000
v 0.14705 2.09440 0.45000
v -0.00315 2.05030 0.45000
v -0.13485 1.96566 0.45000
v -0.23736 1.84735 0.45000
v -0.30240 1.70495 0.45000
v -0.32467 1.55000 0.45000
v -0.30240 1.39505 0.45000
v -0.23736 1.25265 0.45000
v -0.13485 1.13434 0.45000
v -0.00315 1.04970 0.45000
v 0.14705 1.00560 0.45000
v 0.30360 1.00560 0.45000
v 0.45380 1.04970 0.45000
v 0.58550 1.13434 0.45000
v 0.68802 1.25265 0.45000
v 0.75305 1.39505 0.45000
v 0.77533 1.55000 -0.45000
v 0.75305 1.70495 -0.45000
v 0.68802 1.84735 -0.45000
v 0.58550 1.96566 -0.45000
v 0.45380 2.05030 -0.45000
v 0.30360 2.09440 -0.45000
v 0.14705 2.09440 -0.45000
v -0.00315 2.05030 -0.45000
v -0.13485 1.96566 -0.45000
v -0.23736 1.84735 -0.45000
v -0.30240 1.70495 -0.45000
v -0.32467 1.55000 -0.45000
v -0.30240 1.39505 -0.45000
v -0.23736 1.25265 -0.45000
v -0.13485 1.13434 -0.45000
v -0.00315 1.04970 -0.45000
v 0.14705 1.00560 -0.45000
v 0.30360 1.00560 -0.45000
v 0.45380 1.04970 -0.45000
v 0.58550 1.13434 -0.45000
v 0.68802 1.25265 -0.45000
v 0.75305 1.39505 -0.45000
v 2.07533 -1.55000 0.45000
v 2.05305 -1.39505 0.45000
v 1.98802 -1.25265 0.45000
v 1.88550 -1.13434 0.45000
v 1.75380 -1.04970 0.45000
v 1.60360 -1.00560 0.45000
v 1.44705 -1.00560 0.45000
v 1.29685 -1.04970 0.45000
v 1.16515 -1.13434 0.45000
v 1.06264 -1.25265 0.45000
v 0.99760 -1.39505 0.45000
v 0.97533 -1.55000 0.45000
v 0.99760 -1.70495 0.45000
v 1.06264 -1.84735 0.45000
v 1.16515 -1.96566 0.45000
v 1.29685 -2.05030 0.45000
v 1.44705 -2.09440 0.45000
v 1.60360 -2.09440 0.45000
v 1.75380 -2.05030 0.45000
v 1.88550 -1.96566 0.45000
v 1.98802 -1.84735 0.45000
v 2.05305 -1.70495 0.45000
v 2.07533 -1.55000 -0.45000
v 2.05305 -1.39505 -0.45000
v 1.98802 -1.25265 -0.45000
v 1.88550 -1.13434 -0.45000
v 1.75380 -1.04970 -0.45000
v 1.60360 -1.00560 -0.45000
v 1.44705 -1.00560 -0.45000
v 1.29685 -1.04970 -0.45000
v 1.16515 -1.13434 -0.45000
v 1.06264 -1.25265 -0.45000
v 0.99760 -1.39505 -0.45000
v 0.97533 -1.55000 -0.45000
v 0.99760 -1.70495 -0.45000
v 1.06264 -1.84735 -0.45000
v 1.16515 -1.96566 -0.45000
v 1.29685 -2.05030 -0.45000
v 1.44705 -2.09440 -0.45000
v 1.60360 -2.09440 -0.45000
v 1.75380 -2.05030 -0.45000
v 1.88550 -1.96566 -0.45000
v 1.98802 -1.84735 -0.45000
v 2.05305 -1.70495 -0.45000
f 6 1 2
f 6 2 3
f 6 3 4
f 4 5 6
f 8 7 12
f 9 8 12
f 10 9 12
f 12 11 10
f 1 2 8
f 1 8 7
f 2 3 9
f 2 9 8
f 3 4 10
f 3 10 9
f 4 5 11
f 4 11 10
f 5 6 12
f 5 12 11
f 6 1 7
f 6 7 12
f 16 13 14
f 14 15 16
f 18 17 20
f 20 19 18
f 13 14 18
f 13 18 17
f 14 15 19
f 14 19 18
f 15 16 20
f 15 20 19
f 16 13 17
f 16 17 20
f 42 21 22
f 42 22 23
f 42 23 24
f 42 24 25
f 42 25 26
f 42 26 27
f 42 27 28
f 42 28 29
f 42 29 30
f 42 30 31
f 42 31 32
f 42 32 33
f 42 33 34
f 42 34 35
f 42 35 36
f 42 36 37
f 42 37 38
f 42 38 39
f 42 39 40
f 40 41 42
f 44 43 64
f 45 44 64
f 46 45 64
f 47 46 64
f 48 47 64
f 49 48 64
f 50 49 64
f 51 50 64
f 52 51 64
f 53 52 64
f 54 53 64
f 55 54 64
f 56 55 64
f 57 56 64
f 58 57 64
f 59 58 64
f 60 59 64
f 61 60 64
f 62 61 64
f 64 63 62
f 21 22 44
f 21 44 43
f 22 23 45
f 22 45 44
f 23 24 46
f 23 46 45
f 24 25 47
f 24 47 46
f 25 26 48
f 25 48 47
f 26 27 49
f 26 49 48
f 27 28 50
f 27 50 49
f 28 29 51
f 28 51 50
f 29 30 52
f 29 52 51
f 30 31 53
f 30 53 52
f 31 32 54
f 31 54 53
f 32 33 55
f 32 55 54
f 33 34 56
f 33 56 55
f 34 35 57
f 34 57 56
f 35 36 58
f 35 58 57
f 36 37 59
f 36 59 58
f 37 38 60
f 37 60 59
f 38 39 61
f 38 61 60
f 39 40 62
f 39 62 61
f 40 41 63
f 40 63 62
f 41 42 64
f 41 64 63
f 42 21 43
f 42 43 64
f 86 65 66
f 86 66 67
f 86 67 68
f 86 68 69
f 86 69 70
f 86 70 71
f 86 71 72
f 86 72 73
f 86 73 74
f 86 74 75
f 86 75 76
f 86 76 77
f 86 77 78
f 86 78 79
f 86 79 80
f 86 80 81
f 86 81 82
f 86 82 83
f 86 83 84
f 84 85 86
f 88 87 108
f 89 88 108
f 90 89 108
f 91 90 108
f 92 91 108
f 93 92 108
f 94 93 108
f 95 94 108
f 96 95 108
f 97 96 108
f 98 97 108
f 99 98 108
f 100 99 108
f 101 100 108
f 102 101 108
f 103 102 108
f 104 103 108
f 105 104 108
f 106 105 108
f 108 107 106
f 65 66 88
f 65 88 87
f 66 67 89
f 66 89 88
f 67 68 90
f 67 90 89
f 68 69 91
f 68 91 90
f 69 70 92
f 69 92 91
f 70 71 93
f 70 93 92
f 71 72 94
f 71 94 93
f 72 73 95
f 72 95 94
f 73 74 96
f 73 96 95
f 74 75 97
f 74 97 96
f 75 76 98
f 75 98 97
f 76 77 99
f 76 99 98
f 77 78 100
f 77 100 99
f 78 79 101
f 78 101 100
f 79 80 102
f 79 102 101
f 80 81 103
f 80 103 102
f 81 82 104
f 81 104 103
f 82 83 105
f 82 105 104
f 83 84 106
f 83 106 105
f 84 85 107
f 84 107 106
f 85 86 108
f 85 108 107
f 86 65 87
f 86 87 108
